Patient4_TMGait_0pt4_02_left_39_GRF.mot
version=1
nRows=65
nColumns=19
inDegrees=no
endheader
time	F1x	F1y	F1z	M1x	M1y	M1z	F2x	F2y	F2z	M2x	M2y	M2z	EC1x	EC1y	EC1z	EC2x	EC2y	EC2z
52.12	6.2541	10.088	-3.2843	-1.1567	2.7851	17.4329	-26.3847	743.3263	-74.5599	255.1801	89.613	816.3921	-0.0592	0.0182	-0.0073	-0.0462	0.0165	0.9585
52.1327	4.2601	7.4477	-2.2043	-0.99726	1.8362	12.4345	-24.8158	745.07	-73.5528	255.84	88.2031	815.7872	-0.0592	0.0182	-0.0073	-0.0462	0.0165	0.9585
52.1454	2.5681	5.2256	-1.2824	-0.87428	1.0317	8.2459	-23.0605	748.2681	-72.5194	257.0621	86.5877	816.1571	-0.0592	0.0182	-0.0073	-0.0462	0.0165	0.9585
52.1581	1.2805	3.5576	-0.57678	-0.79566	0.4215	5.0956	-21.1388	752.982	-71.4953	258.8804	84.8055	817.6074	-0.0592	0.0182	-0.0073	-0.0462	0.0165	0.9585
52.1709	0.3803	2.4411	-0.082662	-0.75784	-0.0039285	2.9673	-19.0516	758.9981	-70.4815	261.2279	82.8749	819.9621	-0.0592	0.0182	-0.0073	-0.0462	0.0165	0.9585
52.1836	-0.18853	1.7963	0.22596	-0.75261	-0.26852	1.7082	-16.8203	765.8459	-69.457	263.9415	80.8063	822.7882	-0.0592	0.0182	-0.0073	-0.0462	0.0165	0.9585
52.1963	-0.50947	1.4714	0.39897	-0.75906	-0.42078	1.0755	-14.5076	772.8674	-68.3892	266.7868	78.6097	825.4809	-0.0592	0.0182	-0.0073	-0.0462	0.0165	0.9585
52.209	-0.67515	1.3288	0.47593	-0.75716	-0.50296	0.83562	-12.2014	779.302	-67.2463	269.4873	76.3011	827.3461	-0.0592	0.0182	-0.0073	-0.0462	0.0165	0.9585
52.2217	-0.75381	1.2201	0.50459	-0.72031	-0.55885	0.74822	-10.0007	784.3973	-65.9893	271.7642	73.8874	827.7171	-0.0592	0.0182	-0.0073	-0.0462	0.0165	0.9585
52.2344	-0.80734	0.99679	0.50715	-0.61777	-0.61366	0.60257	-7.9689	787.5484	-64.5736	273.3848	71.3561	826.0806	-0.0592	0.0182	-0.0073	-0.0462	0.0165	0.9585
52.2471	-0.87112	0.5321	0.51667	-0.42054	-0.69439	0.20729	-6.112	788.3601	-62.9744	274.1891	68.6937	822.1239	-0.0592	0.0182	-0.0073	-0.0462	0.0165	0.9585
52.2599	-0.95764	-0.27861	0.53866	-0.10018	-0.79861	-0.58163	-4.389	786.6542	-61.2273	274.0915	65.9273	815.7474	-0.0592	0.0182	-0.0073	-0.0462	0.0165	0.9585
52.2726	-1.0519	-1.5196	0.57449	0.36967	-0.91238	-1.8806	-2.6937	782.4685	-59.4196	273.0809	63.111	807.0403	-0.0592	0.0182	-0.0073	-0.0462	0.0165	0.9585
52.2853	-1.1167	-3.1906	0.60931	0.9883	-0.99846	-3.7011	-0.90588	776.0626	-57.6924	271.226	60.342	796.2846	-0.0592	0.0182	-0.0073	-0.0462	0.0165	0.9585
52.298	-1.0869	-5.2013	0.61765	1.7215	-0.99927	-5.9416	1.1064	767.9083	-56.1846	268.6755	57.7154	783.9393	-0.0592	0.0182	-0.0073	-0.0462	0.0165	0.9585
52.3107	-0.85476	-7.2831	0.5587	2.4711	-0.83607	-8.2957	3.4598	758.6609	-55.0278	265.6437	55.3245	770.6558	-0.0592	0.0182	-0.0073	-0.0462	0.0165	0.9585
52.3234	-0.28674	-8.9064	0.39182	3.0465	-0.4214	-10.1717	6.2218	749.018	-54.3138	262.3653	53.2391	757.1332	-0.0592	0.0182	-0.0073	-0.0462	0.0165	0.9585
52.3361	0.78828	-9.2304	0.062249	3.1434	0.36031	-10.6179	9.3998	739.6212	-54.1028	259.0553	51.5162	744.0204	-0.0592	0.0182	-0.0073	-0.0462	0.0165	0.9585
52.3489	2.5343	-7.0301	-0.4836	2.3217	1.6265	-8.2364	12.9553	730.9443	-54.4049	255.8726	50.1822	731.8031	-0.0592	0.0182	-0.0073	-0.0462	0.0165	0.9585
52.3616	5.0821	-0.6934	-1.2861	0.0040467	3.4671	-1.2108	16.771	723.1789	-55.1827	252.8848	49.2398	720.7067	-0.0592	0.0182	-0.0073	-0.0462	0.0165	0.9585
52.3743	8.4486	11.6705	-2.3574	-4.4851	5.8988	12.5855	20.6666	716.1953	-56.3308	250.0548	48.6455	710.6602	-0.0592	0.0182	-0.0073	-0.0462	0.0165	0.9585
52.387	12.4556	31.9961	-3.6513	-11.8341	8.801	35.3287	24.423	709.4789	-57.6831	247.22	48.3149	701.2297	-0.0592	0.0182	-0.0073	-0.0462	0.0165	0.9585
52.3997	16.5936	61.806	-5.0164	-22.5751	11.8202	68.7559	27.7721	702.0938	-58.9973	244.084	48.106	691.583	-0.0592	0.0182	-0.0073	-0.0462	0.0165	0.9585
52.4124	19.8894	101.4192	-6.1598	-36.8024	14.2712	113.287	30.4766	692.7565	-59.9834	240.2424	47.825	680.531	-0.0592	0.0182	-0.0073	-0.0462	0.0165	0.9585
52.4251	20.8379	148.9647	-6.5816	-53.8189	15.0449	166.9118	32.3504	680.0471	-60.3293	235.2523	47.2453	666.7281	-0.0592	0.0182	-0.0073	-0.0462	0.0165	0.9585
52.4379	18.0951	199.7964	-5.631	-71.9199	12.9268	224.517	33.2928	662.691	-59.7477	228.7281	46.139	648.923	-0.0592	0.0182	-0.0073	-0.0462	0.0165	0.9585
52.4506	12.1834	247.2329	-2.5488	-88.6656	7.2726	278.6057	33.3286	639.9343	-58.0689	220.4523	44.3485	626.3212	-0.0592	0.0182	-0.0073	-0.0462	0.0165	0.9585
52.4633	5.2601	286.1607	2.66	-102.2174	-1.0868	323.1827	32.6634	611.7458	-55.3486	210.4301	41.8695	598.7661	-0.0592	0.0182	-0.0073	-0.0462	0.0165	0.9585
52.476	-1.1562	315.6356	8.8454	-112.2696	-10.321	356.903	31.542	578.7397	-51.8875	198.8584	38.8999	566.7122	-0.0592	0.0182	-0.0073	-0.0462	0.0165	0.9585
52.4887	-6.2998	337.9002	15.4947	-119.6483	-19.5339	382.168	30.2344	541.8056	-48.1506	186.0137	35.7712	530.8811	-0.0592	0.0182	-0.0073	-0.0462	0.0165	0.9585
52.5014	-10.1325	356.6051	21.8809	-125.6978	-27.9325	403.1006	28.9079	501.8729	-44.445	172.1847	32.6978	492.0868	-0.0592	0.0182	-0.0073	-0.0462	0.0165	0.9585
52.5141	-13.0306	375.2886	27.9514	-131.6919	-35.5687	423.7729	27.6365	459.6905	-40.8599	157.613	29.7298	451.0012	-0.0592	0.0182	-0.0073	-0.0462	0.0165	0.9585
52.5269	-15.3219	396.6402	33.4728	-138.6038	-42.348	447.1489	26.3733	415.9099	-37.2766	142.5149	26.7684	408.2559	-0.0592	0.0182	-0.0073	-0.0462	0.0165	0.9585
52.5396	-17.2052	422.472	38.7155	-147.0574	-48.6264	475.2631	25.0094	371.0439	-33.5589	127.066	23.7208	364.3615	-0.0592	0.0182	-0.0073	-0.0462	0.0165	0.9585
52.5523	-18.5699	453.7945	43.7652	-157.3933	-54.498	509.1273	23.3498	325.5766	-29.6095	111.4339	20.5549	319.8233	-0.0592	0.0182	-0.0073	-0.0462	0.0165	0.9585
52.565	-19.436	490.5468	49.0698	-169.5513	-60.4325	548.6761	21.2106	280.0823	-25.4732	95.814	17.3658	275.2476	-0.0592	0.0182	-0.0073	-0.0462	0.0165	0.9585
52.5777	-19.8733	531.4718	54.8036	-183.0812	-66.6507	592.4489	18.4606	235.3532	-21.2645	80.4752	14.3022	231.4456	-0.0592	0.0182	-0.0073	-0.0462	0.0165	0.9585
52.5904	-20.0737	574.8849	61.167	-197.3855	-73.4097	638.6278	15.0682	192.4301	-17.1628	65.7683	11.5415	189.4555	-0.0592	0.0182	-0.0073	-0.0462	0.0165	0.9585
52.6031	-20.0797	619.1756	67.8217	-211.946	-80.3799	685.3936	11.2307	152.5372	-13.3341	52.1084	9.1778	150.451	-0.0592	0.0182	-0.0073	-0.0462	0.0165	0.9585
52.6159	-19.973	662.8485	74.4179	-226.2939	-87.2058	731.1347	7.2734	116.8521	-9.939	39.8939	7.2544	115.5674	-0.0592	0.0182	-0.0073	-0.0462	0.0165	0.9585
52.6286	-19.7333	704.3052	80.4104	-239.9381	-93.3097	774.1091	3.6082	86.1718	-7.0608	29.4002	5.7184	85.5346	-0.0592	0.0182	-0.0073	-0.0462	0.0165	0.9585
52.6413	-19.3318	741.8049	85.492	-252.3146	-98.3492	812.4795	0.53158	60.8411	-4.7291	20.7429	4.5015	60.6911	-0.0592	0.0182	-0.0073	-0.0462	0.0165	0.9585
52.654	-18.7812	773.5569	89.378	-262.8278	-102.0316	844.3661	-1.7327	40.7278	-2.9199	13.8767	3.5105	40.8936	-0.0592	0.0182	-0.0073	-0.0462	0.0165	0.9585
52.6667	-18.0758	797.9948	92.0576	-270.9336	-104.3443	868.1557	-3.1354	25.3996	-1.5886	8.6508	2.6844	25.7542	-0.0592	0.0182	-0.0073	-0.0462	0.0165	0.9585
52.6794	-17.2491	814.0414	93.5495	-276.2481	-105.3253	882.7981	-3.6671	14.2549	-0.67248	4.8576	1.9663	14.7061	-0.0592	0.0182	-0.0073	-0.0462	0.0165	0.9585
52.6921	-16.2729	821.3057	94.0337	-278.6186	-105.1585	887.9572	-3.4706	6.6659	-0.10788	2.2793	1.3458	7.1541	-0.0592	0.0182	-0.0073	-0.0462	0.0165	0.9585
52.7049	-15.1574	820.2017	93.6368	-278.1733	-103.9835	884.1574	-2.8727	2.0049	0.18378	0.70014	0.85567	2.4966	-0.0592	0.0182	-0.0073	-0.0462	0.0165	0.9585
52.7176	-13.8576	811.8761	92.5158	-275.2971	-101.9601	872.6597	-2.1328	-0.42725	0.2787	-0.11873	0.50854	0.052298	-0.0592	0.0182	-0.0073	-0.0462	0.0165	0.9585
52.7303	-12.379	798.1096	90.774	-270.5989	-99.2081	855.3815	-1.4378	-1.302	0.2502	-0.40906	0.29132	-0.82735	-0.0592	0.0182	-0.0073	-0.0462	0.0165	0.9585
52.743	-10.7116	781.0621	88.5439	-264.8251	-95.8786	834.6002	-0.8519	-1.236	0.1554	-0.37894	0.17286	-0.77736	-0.0592	0.0182	-0.0073	-0.0462	0.0165	0.9585
52.7557	-8.8822	762.9646	85.9801	-258.751	-92.1503	812.6564	-0.43194	-0.64783	0.042198	-0.17508	0.1266	-0.19367	-0.0592	0.0182	-0.0073	-0.0462	0.0165	0.9585
52.7684	-6.9021	745.8823	83.2629	-253.0942	-88.2225	791.6779	-0.1289	0.13633	-0.063623	0.093102	0.11992	0.5803	-0.0592	0.0182	-0.0073	-0.0462	0.0165	0.9585
52.7811	-4.7827	731.5334	80.5576	-248.4558	-84.2683	773.4029	0.040829	0.94242	-0.14481	0.36536	0.13959	1.3934	-0.0592	0.0182	-0.0073	-0.0462	0.0165	0.9585
52.7939	-2.5346	721.1927	77.9802	-245.285	-80.412	759.1101	0.14294	1.6632	-0.19859	0.60793	0.16546	2.1252	-0.0592	0.0182	-0.0073	-0.0462	0.0165	0.9585
52.8066	-0.16192	715.5946	75.619	-243.8411	-76.7412	749.5136	0.18243	2.2672	-0.22823	0.81075	0.19445	2.7533	-0.0592	0.0182	-0.0073	-0.0462	0.0165	0.9585
52.8193	2.3238	714.8968	73.5171	-244.1747	-73.3013	744.743	0.1806	2.7326	-0.23767	0.96801	0.21954	3.2391	-0.0592	0.0182	-0.0073	-0.0462	0.0165	0.9585
52.832	4.8986	718.6883	71.7052	-246.1339	-70.1263	744.3601	0.16186	3.0719	-0.23815	1.0836	0.24233	3.5897	-0.0592	0.0182	-0.0073	-0.0462	0.0165	0.9585
52.8447	7.5265	726.1173	70.184	-249.4046	-67.2272	747.5072	0.12151	3.2909	-0.23763	1.1588	0.26977	3.8189	-0.0592	0.0182	-0.0073	-0.0462	0.0165	0.9585
52.8574	10.1741	736.0313	68.9445	-253.5624	-64.5976	753.0383	0.079023	3.3587	-0.24626	1.1836	0.3063	3.8753	-0.0592	0.0182	-0.0073	-0.0462	0.0165	0.9585
52.8701	12.8192	747.201	67.9492	-258.1537	-62.1984	759.7375	0.013344	3.2708	-0.27311	1.1509	0.36617	3.7591	-0.0592	0.0182	-0.0073	-0.0462	0.0165	0.9585
52.8829	15.4507	758.4571	67.1638	-262.7462	-59.9958	766.464	-0.051708	2.9368	-0.3203	1.0301	0.44552	3.3509	-0.0592	0.0182	-0.0073	-0.0462	0.0165	0.9585
52.8956	18.0625	768.7365	66.5363	-266.9485	-57.9447	772.2024	-0.14824	2.2771	-0.38769	0.78969	0.55092	2.5762	-0.0592	0.0182	-0.0073	-0.0462	0.0165	0.9585
52.9083	20.6555	777.1418	66.0208	-270.431	-56.0073	776.1034	-0.22778	1.1707	-0.47009	0.38751	0.66452	1.285	-0.0592	0.0182	-0.0073	-0.0462	0.0165	0.9585
52.921	23.2473	782.9882	65.5535	-272.9411	-54.1251	777.5387	-0.29805	-0.47971	-0.55771	-0.21092	0.77359	-0.61797	-0.0592	0.0182	-0.0073	-0.0462	0.0165	0.9585
52.9337	25.8777	785.798	65.0913	-274.303	-52.2535	776.0896	-0.30906	-2.7269	-0.6306	-1.0212	0.83742	-3.2079	-0.0592	0.0182	-0.0073	-0.0462	0.0165	0.9585
